<?xml version="1.0" standalone="no"?>
<!DOCTYPE svg PUBLIC "-//W3C//DTD SVG 20010904//EN"
 "http://www.w3.org/TR/2001/REC-SVG-20010904/DTD/svg10.dtd">
<svg version="1.0" xmlns="http://www.w3.org/2000/svg"
 width="300.000000pt" height="300.000000pt" viewBox="0 0 300.000000 300.000000"
 preserveAspectRatio="xMidYMid meet">
<metadata>
Created by potrace 1.11, written by Peter Selinger 2001-2013
</metadata>
<g transform="translate(0.000000,300.000000) scale(0.100000,-0.100000)"
fill="#000000" stroke="none">
<path d="M535 1483 l0 -898 75 0 75 0 1 665 c1 366 2 669 3 674 0 5 56 -71
124 -168 67 -97 163 -236 214 -309 51 -73 118 -170 150 -217 32 -47 60 -87 63
-90 3 -3 66 -92 140 -199 l133 -193 1 -84 1 -84 75 0 75 0 0 406 c0 223 2 407
5 409 3 1 61 -72 130 -163 69 -92 207 -276 308 -409 l183 -243 95 0 95 0 -43
59 c-24 33 -191 256 -371 496 l-328 436 113 132 c62 72 122 143 133 156 11 13
27 32 35 41 19 20 65 74 115 135 22 27 45 53 50 59 6 6 49 56 95 111 47 55 99
116 117 135 l33 35 -98 3 c-96 3 -97 2 -121 -25 -13 -15 -33 -39 -45 -53 -54
-62 -406 -478 -445 -526 -24 -29 -47 -52 -50 -50 -4 3 -6 151 -6 331 l0 326
-75 -3 -75 -3 0 -677 c0 -373 -1 -678 -2 -678 -2 0 -67 93 -259 370 -32 47
-200 289 -372 538 -202 292 -319 452 -330 452 -16 0 -17 -64 -17 -897z"/>
</g>
</svg>
